HIERARCHY
ROOT Hips
{
	OFFSET -3.958830 18.904000 13.208200
	CHANNELS 6 Xposition Yposition Zposition Zrotation Yrotation Xrotation 
	JOINT LHipJoint
	{
		OFFSET 0.000000 0.000000 0.000000
		CHANNELS 3 Zrotation Yrotation Xrotation
		JOINT LeftUpLeg
		{
			OFFSET 1.800000 -1.400000 0.085000
			CHANNELS 3 Zrotation Yrotation Xrotation
			JOINT LeftLeg
			{
				OFFSET 2.215000 -6.000000 0.000000
				CHANNELS 3 Zrotation Yrotation Xrotation
				JOINT LeftFoot
				{
					OFFSET 2.500000 -6.900000 0.000000
					CHANNELS 3 Zrotation Yrotation Xrotation
					JOINT LeftToeBase
					{
						OFFSET 0.200000 -0.500000 1.950000
						CHANNELS 3 Zrotation Yrotation Xrotation
						End Site
						{
							OFFSET 0.000000 0.000000 0.000000
						}
					}
				}
			}
		}
	}
	JOINT RHipJoint
	{
		OFFSET 0.000000 0.000000 0.000000
		CHANNELS 3 Zrotation Yrotation Xrotation
		JOINT RightUpLeg
		{
			OFFSET -1.800000 -1.400000 0.085000
			CHANNELS 3 Zrotation Yrotation Xrotation
			JOINT RightLeg
			{
				OFFSET -2.215000 -6.000000 0.000000
				CHANNELS 3 Zrotation Yrotation Xrotation
				JOINT RightFoot
				{
					OFFSET -2.500000 -6.900000 0.000000
					CHANNELS 3 Zrotation Yrotation Xrotation
					JOINT RightToeBase
					{
						OFFSET -0.200000 -0.500000 1.950000
						CHANNELS 3 Zrotation Yrotation Xrotation
						End Site
						{
							OFFSET 0.000000 0.000000 0.000000
						}
					}
				}
			}
		}
	}
	JOINT LowerBack
	{
		OFFSET 0.000000 0.000000 0.000000
		CHANNELS 3 Zrotation Yrotation Xrotation
		JOINT Spine
		{
			OFFSET -0.087000 1.940000 -0.288900
			CHANNELS 3 Zrotation Yrotation Xrotation
			JOINT Spine1
			{
				OFFSET 0.000000 1.950000 0.060000
				CHANNELS 3 Zrotation Yrotation Xrotation
				JOINT Neck
				{
					OFFSET 0.000000 0.000000 0.000000
					CHANNELS 3 Zrotation Yrotation Xrotation
					JOINT Neck1
					{
						OFFSET 0.000000 1.600000 0.340000
						CHANNELS 3 Zrotation Yrotation Xrotation
						JOINT Head
						{
							OFFSET 0.000000 1.667000 -0.240000
							CHANNELS 3 Zrotation Yrotation Xrotation
							End Site
							{
								OFFSET 0.000000 0.000000 0.000000
							}
						}
					}
				}
				JOINT LeftShoulder
				{
					OFFSET 0.000000 0.000000 0.000000
					CHANNELS 3 Zrotation Yrotation Xrotation
					JOINT LeftArm
					{
						OFFSET 2.700000 1.550000 -0.730000
						CHANNELS 3 Zrotation Yrotation Xrotation
						JOINT LeftForeArm
						{
							OFFSET 5.450000 0.000000 0.000000
							CHANNELS 3 Zrotation Yrotation Xrotation
							JOINT LeftHand
							{
								OFFSET 3.450000 0.000000 0.000000
								CHANNELS 3 Zrotation Yrotation Xrotation
								JOINT LeftHandIndex1
								{
									OFFSET 0.750000 0.000000 0.000000
									CHANNELS 3 Zrotation Yrotation Xrotation
									End Site
									{
										OFFSET 0.000000 0.000000 0.000000
									}
								}
							}
						}
					}
				}
				JOINT RightShoulder
				{
					OFFSET 0.000000 0.000000 0.000000
					CHANNELS 3 Zrotation Yrotation Xrotation
					JOINT RightArm
					{
						OFFSET -2.700000 1.550000 -0.730000
						CHANNELS 3 Zrotation Yrotation Xrotation
						JOINT RightForeArm
						{
							OFFSET -5.450000 0.000000 0.000000
							CHANNELS 3 Zrotation Yrotation Xrotation
							JOINT RightHand
							{
								OFFSET -3.450000 0.000000 0.000000
								CHANNELS 3 Zrotation Yrotation Xrotation
								JOINT RightHandIndex1
								{
									OFFSET -0.750000 0.000000 0.000000
									CHANNELS 3 Zrotation Yrotation Xrotation
									End Site
									{
										OFFSET 0.000000 0.000000 0.000000
									}
								}
							}
						}
					}
				}
			}
		}
	}
}
MOTION
Frames: 7
Frame Time: 0.016667
-12.184850 17.787490 -6.809650 -4.833026 -16.707659 1.112289 -15.270821 12.837172 3.499375 3.020097 -3.460701 -23.044470 -3.681386 1.868183 -3.810493 -1.483614 3.354218 3.534579 0.566820 0.486920 0.137780 18.392178 -9.884245 2.621565 -0.791507 -1.814029 1.161714 8.459533 -5.570589 7.475124 -0.593391 -4.702965 2.617572 0.760220 0.878870 0.420020 -3.556013 -3.671436 -7.086340 10.581332 -0.636940 5.164673 -2.199115 0.507875 10.361408 -3.170155 -6.933894 -10.786428 -14.851093 25.912558 18.197310 9.133430 15.307860 -11.813960 -8.016093 -18.790385 3.176037 -16.707545 -26.763437 0.811873 12.953608 -63.771799 -8.977959 -3.942723 2.927768 0.604530 0.504870 -0.070420 0.387110 14.624755 19.822806 7.383523 3.347816 6.635629 -2.727863 -7.171401 37.444538 -0.884525 1.562759 -1.490291 -0.615640 0.657510 0.125710 -0.056980 
-12.175940 17.789030 -6.793180 -4.843036 -17.021521 1.126173 -15.304630 12.914598 3.511909 3.003344 -3.496777 -22.872680 -3.672367 1.876742 -3.945718 -1.544171 3.432111 3.506558 0.561970 0.459610 0.205480 18.364650 -9.798272 2.592754 -0.881326 -1.788590 1.274900 8.339729 -5.580168 7.572847 -0.589508 -4.695305 2.593185 0.770060 0.882550 0.419000 -3.466653 -3.976578 -7.067390 10.295517 -0.624262 4.914099 -1.983894 0.522168 10.715964 -3.353482 -6.903299 -11.234711 -15.331596 28.812762 17.292805 8.748720 18.215830 -11.469640 -7.449081 -19.051143 3.585394 -17.425088 -26.538391 0.586944 13.835139 -63.816846 -9.817242 -3.979455 2.902917 0.631960 0.528400 -0.076020 0.349260 14.483568 19.618903 7.588522 3.826089 4.875871 -2.944076 -8.551671 37.808804 -1.316414 1.520175 -1.496277 -0.664020 0.670610 0.139630 -0.110760 
-12.170480 17.795110 -6.785130 -4.696763 -17.185711 0.693153 -15.335038 13.035958 3.532832 2.874738 -3.470176 -22.268738 -3.599562 1.890068 -4.205228 -1.559021 3.503025 3.476067 0.515600 0.378410 0.222110 18.328801 -9.721974 2.580544 -1.017472 -1.827011 1.735293 8.151799 -5.642781 7.800501 -0.589379 -4.690982 2.575882 0.726330 0.881490 0.414090 -3.358119 -4.335728 -7.108715 9.705145 -0.716503 5.216090 -1.724309 0.493901 11.122531 -3.408453 -6.904226 -12.189959 -16.034478 31.475552 17.183519 9.454100 20.713350 -10.882650 -7.174225 -20.114561 4.290422 -17.182427 -25.532295 -0.308826 14.699556 -64.369534 -10.753828 -3.977224 2.908500 0.677430 0.518390 -0.078250 0.309360 14.445219 20.228689 8.291367 4.472365 2.673028 -3.561580 -10.972073 38.107523 -2.008779 1.501338 -1.481689 -0.703230 0.666290 0.176920 -0.150140 
-12.161220 17.801800 -6.784030 -4.695188 -17.319011 -0.067851 -15.346424 13.143376 3.550605 3.017299 -3.341668 -21.391122 -3.747988 1.932181 -4.508166 -1.513873 3.529227 3.451363 0.507390 0.359650 0.270120 18.305489 -9.671558 2.588479 -1.178542 -1.960786 2.459589 8.150271 -5.755225 8.010292 -0.634498 -4.680730 2.555453 0.685440 0.822860 0.394430 -3.292898 -4.618515 -7.186898 9.453255 -0.842139 5.969005 -1.686794 0.484056 11.577495 -3.362005 -6.853120 -13.294707 -16.706868 33.690514 17.973985 10.483020 23.026080 -11.206820 -6.980602 -21.427735 4.975962 -16.662269 -24.802210 -1.360724 15.648928 -64.719945 -11.630194 -3.900360 2.912364 0.736360 0.453420 -0.025920 0.280190 14.215065 21.047315 9.098841 5.374591 0.786440 -4.203426 -13.428003 37.843490 -2.673093 1.532075 -1.453720 -0.703760 0.651690 0.164170 -0.173610 
-12.151470 17.804350 -6.779020 -4.611366 -17.458762 -0.367181 -15.346409 13.187464 3.552509 2.938971 -3.301408 -20.940207 -3.693384 1.920290 -4.680327 -1.505798 3.513968 3.452941 0.551490 0.422080 0.308380 18.305355 -9.653300 2.574245 -1.247218 -1.976933 2.597663 7.966342 -5.758392 8.274953 -0.663717 -4.671604 2.549033 0.709900 0.797890 0.382740 -3.290344 -4.741299 -7.187467 9.544549 -0.800726 6.082331 -1.854744 0.608699 11.800667 -3.605111 -6.830240 -13.715267 -17.245149 35.300794 18.060973 11.192630 24.437440 -11.256950 -6.682116 -21.767317 5.157825 -16.701720 -25.095146 -1.439128 15.316742 -63.596405 -11.237145 -3.855447 2.935280 0.753700 0.429710 0.004010 0.292710 14.329751 21.002891 9.312869 5.747893 -0.856694 -4.448492 -14.047642 38.873915 -2.983854 1.524723 -1.487795 -0.696030 0.654210 0.126740 -0.174490 
-12.147390 17.802870 -6.773300 -4.560184 -17.521631 -0.549355 -15.344698 13.219078 3.558945 2.807220 -3.255555 -20.440953 -3.551096 1.887890 -5.010533 -1.445590 3.502497 3.453758 0.552930 0.439380 0.283620 18.306009 -9.651440 2.560477 -1.116710 -1.960382 2.510388 7.674474 -5.744719 8.730002 -0.664549 -4.663251 2.549489 0.699340 0.794040 0.397540 -3.290074 -4.803982 -7.195267 9.719104 -0.670813 6.197528 -1.900708 0.788567 11.984819 -3.705792 -6.845287 -14.143326 -17.738926 35.968958 18.423152 11.950120 24.874770 -10.260590 -6.298892 -21.914439 5.349659 -17.185964 -25.538803 -1.318972 15.216932 -61.417022 -10.714428 -3.834046 2.989454 0.727320 0.425830 0.012260 0.307690 14.124064 20.961584 9.605691 6.421837 -2.674073 -4.840882 -15.342834 40.021494 -3.513972 1.527795 -1.540383 -0.660530 0.618680 0.113110 -0.148060 
-12.136790 17.803410 -6.775940 -4.676611 -17.077786 -1.242942 -15.343314 13.269199 3.565953 2.663382 -3.086754 -19.282134 -3.498693 1.887307 -5.645289 -1.298277 3.529867 3.450979 0.491590 0.382780 0.219900 18.305285 -9.641417 2.562814 -0.688036 -2.035114 2.711447 7.383400 -5.818441 9.424976 -0.659823 -4.687963 2.553193 0.617730 0.790260 0.434330 -3.283478 -4.887376 -7.251206 10.165367 -0.862337 7.025965 -2.193718 0.696662 12.560043 -3.345736 -6.694874 -14.810498 -17.888988 35.644526 20.095070 11.875290 25.078700 -8.531670 -5.828959 -22.437734 5.834044 -17.544558 -25.750308 -1.866210 17.622988 -60.199040 -11.896231 -3.826787 3.034570 0.675550 0.432670 0.016980 0.309500 12.840988 21.194292 9.958466 7.784651 -3.803457 -5.497536 -17.064793 40.555325 -4.064703 1.557484 -1.570461 -0.597900 0.534970 0.114360 -0.109300 
